HIERARCHY
ROOT reference
{
  OFFSET 0 0 0
  CHANNELS 6 Xposition Yposition Zposition Zrotation Xrotation Yrotation
  JOINT Hips
  {
    OFFSET 0 97.8064 0
    CHANNELS 6 Xposition Yposition Zposition Zrotation Xrotation Yrotation
    JOINT ToSpine
    {
      OFFSET -2.69724 7.43032 -0.144315
      CHANNELS 6 Xposition Yposition Zposition Zrotation Xrotation Yrotation
      JOINT Spine
      {
        OFFSET -0.0310711 10.7595 1.96963
        CHANNELS 6 Xposition Yposition Zposition Zrotation Xrotation Yrotation
        JOINT Spine1
        {
          OFFSET 13.1342 3.43533 0.764692
          CHANNELS 6 Xposition Yposition Zposition Zrotation Xrotation Yrotation
          JOINT Neck
          {
            OFFSET 29.8703 7.82586 -0.130764
            CHANNELS 6 Xposition Yposition Zposition Zrotation Xrotation Yrotation
            JOINT Head
            {
              OFFSET 9.52751 0.295786 -0.907742
              CHANNELS 6 Xposition Yposition Zposition Zrotation Xrotation Yrotation
              End Site
              {
                OFFSET 16.4037 0.713936 2.7358
              }
            }
          }
          JOINT LeftShoulder
          {
            OFFSET 27.5574 4.95586 2.47156
            CHANNELS 6 Xposition Yposition Zposition Zrotation Xrotation Yrotation
            JOINT LeftArm
            {
              OFFSET 1.20734 -0.998971 20.1238
              CHANNELS 6 Xposition Yposition Zposition Zrotation Xrotation Yrotation
              JOINT LeftForeArm
              {
                OFFSET 26.8049 -0.0536703 -0.155908
                CHANNELS 6 Xposition Yposition Zposition Zrotation Xrotation Yrotation
                JOINT LeftHand
                {
                  OFFSET 26.6817 0 0.320147
                  CHANNELS 6 Xposition Yposition Zposition Zrotation Xrotation Yrotation
                  End Site
                  {
                    OFFSET 18.6119 0 0.382219
                  }
                }
              }
            }
          }
          JOINT RightShoulder
          {
            OFFSET 27.5927 4.71444 -2.65209
            CHANNELS 6 Xposition Yposition Zposition Zrotation Xrotation Yrotation
            JOINT RightArm
            {
              OFFSET 2.83739 -1.17114 -18.7564
              CHANNELS 6 Xposition Yposition Zposition Zrotation Xrotation Yrotation
              JOINT RightForeArm
              {
                OFFSET 28.839 -0.0548439 1.22491
                CHANNELS 6 Xposition Yposition Zposition Zrotation Xrotation Yrotation
                JOINT RightHand
                {
                  OFFSET 26.5114 0 -0.101894
                  CHANNELS 6 Xposition Yposition Zposition Zrotation Xrotation Yrotation
                  End Site
                  {
                    OFFSET 18.2168 0 0
                  }
                }
              }
            }
          }
        }
      }
    }
    JOINT LeftUpLeg
    {
      OFFSET -4.76168 -1.9167 -10.2353
      CHANNELS 6 Xposition Yposition Zposition Zrotation Xrotation Yrotation
      JOINT LeftLeg
      {
        OFFSET 2.55951 -42.0585 -8.02213
        CHANNELS 6 Xposition Yposition Zposition Zrotation Xrotation Yrotation
        JOINT LeftFoot
        {
          OFFSET 3.16357 -42.5282 -3.95426
          CHANNELS 6 Xposition Yposition Zposition Zrotation Xrotation Yrotation
          JOINT LeftToeBase
          {
            OFFSET 0.346054 -6.02161 12.8035
            CHANNELS 6 Xposition Yposition Zposition Zrotation Xrotation Yrotation
            End Site
            {
              OFFSET 0.134235 -1.35082 5.13018
            }
          }
        }
      }
    }
    JOINT RightUpLeg
    {
      OFFSET -4.94151 -1.41743 10.6446
      CHANNELS 6 Xposition Yposition Zposition Zrotation Xrotation Yrotation
      JOINT RightLeg
      {
        OFFSET -2.56294 -42.0364 -7.94377
        CHANNELS 6 Xposition Yposition Zposition Zrotation Xrotation Yrotation
        JOINT RightFoot
        {
          OFFSET -3.0952 -42.555 -4.02241
          CHANNELS 6 Xposition Yposition Zposition Zrotation Xrotation Yrotation
          JOINT RightToeBase
          {
            OFFSET -0.0828122 -6.13587 12.8035
            CHANNELS 6 Xposition Yposition Zposition Zrotation Xrotation Yrotation
            End Site
            {
              OFFSET -0.131328 -1.35082 5.13018
            }
          }
        }
      }
    }
  }
}
MOTION
Frames:	6
Frame Time:	0.0333333
0 0 0 0 0 -0 -42.1445 93.7623 30.2367 71.4384 -13.098 -4.04674 -2.69724 7.43032 -0.144315 -70.1915 -2.98177e-015 88.8779 -0.0310711 10.7595 1.96963 92.1322 70.8748 -7.71251 13.1342 3.43533 0.764692 -5.09749 17.2851 12.2139 29.8703 7.82586 -0.130764 -131.802 41.6712 152.244 9.52751 0.295786 -0.907742 -123.165 82.7734 148.701 27.5574 4.95586 2.47156 0.527783 -13.8906 -23.9118 1.20734 -0.998971 20.1238 -78.5088 34.975 -138.46 26.8049 -0.0536703 -0.155908 21.6791 -5.77747 -103.461 26.6817 -4.26326e-014 0.320147 3.18055e-015 -1.19271e-015 -2.78299e-015 27.5927 4.71444 -2.65209 -2.00414 7.42332 41.3667 2.83739 -1.17114 -18.7564 -137.914 6.97782 84.8774 28.839 -0.0548439 1.22491 14.3732 -0.418918 88.1635 26.5114 2.84217e-014 -0.101894 -1.11164e-012 -4.76474e-009 -0.0296889 -4.76168 -1.9167 -10.2353 -55.6818 12.0427 99.9291 2.55951 -42.0585 -8.02213 -2.35366 39.6512 -4.97167 3.16357 -42.5282 -3.95426 -2.46713 -14.711 -1.26997 0.346054 -6.02161 12.8035 3.98633 -11.2542 15.2999 -4.94151 -1.41743 10.6446 -52.1675 -10.6924 80.5802 -2.56294 -42.0364 -7.94377 0.468531 32.8504 15.0365 -3.0952 -42.555 -4.02241 -3.68873 -12.993 1.22346 -0.0828122 -6.13587 12.8035 2.164 -15.2977 -10.392 
0 0 0 0 0 -0 -43.228 94.1856 31.0288 71.3144 -12.4514 -4.14554 -2.69724 7.43032 -0.144315 -70.1915 -1.81391e-014 88.8779 -0.0310711 10.7595 1.96963 88.3611 70.9628 -5.31933 13.1342 3.43533 0.764692 -5.12677 16.9879 12.7333 29.8703 7.82586 -0.130764 -132.232 41.648 152.953 9.52751 0.295786 -0.907742 -124.856 82.6732 149.699 27.5574 4.95586 2.47156 0.552193 -13.7749 -23.665 1.20734 -0.998971 20.1238 -78.5906 34.124 -140.621 26.8049 -0.0536703 -0.155908 21.4537 -5.40403 -102.737 26.6817 -1.42109e-014 0.320147 5.8967e-032 1.19271e-015 -2.83268e-015 27.5927 4.71444 -2.65209 -1.85386 7.27569 39.8683 2.83739 -1.17114 -18.7564 -138.405 6.7155 84.5027 28.839 -0.0548439 1.22491 13.5961 -0.396645 88.1578 26.5114 1.42109e-014 -0.101894 -1.11283e-012 -4.76473e-009 -0.0296889 -4.76168 -1.9167 -10.2353 -57.6691 11.1115 99.2604 2.55951 -42.0585 -8.02213 -1.79637 33.3674 -3.96474 3.16357 -42.5282 -3.95426 -1.5439 -12.7505 -1.07677 0.346054 -6.02161 12.8035 3.94269 -11.3591 16.4114 -4.94151 -1.41743 10.6446 -51.9706 -9.3355 82.2865 -2.56294 -42.0364 -7.94377 0.318575 32.0738 13.0486 -3.0952 -42.555 -4.02241 -3.06115 -13.4475 1.23728 -0.0828122 -6.13587 12.8035 2.09943 -12.1994 -10.9618 
0 0 0 0 0 -0 -44.272 94.4371 31.6067 71.2907 -11.4911 -4.0975 -2.69724 7.43032 -0.144315 -70.1915 -8.44835e-016 88.8779 -0.0310711 10.7595 1.96963 84.5766 70.7248 -2.93666 13.1342 3.43533 0.764692 -4.8768 16.5007 13.2087 29.8703 7.82586 -0.130764 -132.299 41.7499 153.323 9.52751 0.295786 -0.907742 -125.642 82.778 149.876 27.5574 4.95586 2.47156 0.540795 -13.914 -23.4392 1.20734 -0.998971 20.1238 -78.5778 33.2068 -141.491 26.8049 -0.0536703 -0.155908 20.5439 -5.09683 -102.596 26.6817 -2.84217e-014 0.320147 -3.18055e-015 6.95746e-016 -8.94531e-016 27.5927 4.71444 -2.65209 -1.83333 7.38035 39.2187 2.83739 -1.17114 -18.7564 -138.855 6.63045 84.5239 28.839 -0.0548439 1.22491 12.4515 -0.333942 88.2789 26.5114 5.68434e-014 -0.101894 -1.10925e-012 -4.76475e-009 -0.0296889 -4.76168 -1.9167 -10.2353 -57.7972 10.669 98.157 2.55951 -42.0585 -8.02213 -1.22569 31.2746 -3.34261 3.16357 -42.5282 -3.95426 -1.80907 -12.7532 -1.07261 0.346054 -6.02161 12.8035 3.06594 -9.56591 13.6171 -4.94151 -1.41743 10.6446 -51.6983 -9.22737 81.8543 -2.56294 -42.0364 -7.94377 0.719269 31.7485 12.9576 -3.0952 -42.555 -4.02241 -3.94439 -12.6539 1.21075 -0.0828122 -6.13587 12.8035 2.21556 -13.7861 -12.8835 
0 0 0 0 0 -0 -45.3149 94.6946 31.9891 71.3566 -10.4883 -4.30893 -2.69724 7.43032 -0.144315 -70.1915 -7.90169e-015 88.8779 -0.0310711 10.7595 1.96963 82.9403 70.6316 -2.44367 13.1342 3.43533 0.764692 -4.84889 16.4072 13.1141 29.8703 7.82586 -0.130764 -133.094 41.919 153.092 9.52751 0.295786 -0.907742 -124.577 82.7465 148.009 27.5574 4.95586 2.47156 0.549644 -13.9236 -23.1368 1.20734 -0.998971 20.1238 -78.1351 32.6319 -142.47 26.8049 -0.0536703 -0.155908 20.7694 -5.19959 -102.698 26.6817 -4.26326e-014 0.320147 3.18055e-015 9.44227e-016 -4.22417e-015 27.5927 4.71444 -2.65209 -1.82658 7.39715 39.0665 2.83739 -1.17114 -18.7564 -139.142 6.92911 84.3771 28.839 -0.0548439 1.22491 11.8879 -0.286522 88.4221 26.5114 4.26326e-014 -0.101894 -1.10528e-012 -4.76475e-009 -0.0296889 -4.76168 -1.9167 -10.2353 -57.7704 10.4083 98.3395 2.55951 -42.0585 -8.02213 -0.949496 29.6512 -5.83449 3.16357 -42.5282 -3.95426 -2.3535 -11.5288 -0.94251 0.346054 -6.02161 12.8035 3.01314 -9.96262 16.4563 -4.94151 -1.41743 10.6446 -51.3475 -9.75828 81.132 -2.56294 -42.0364 -7.94377 1.02469 31.686 13.4679 -3.0952 -42.555 -4.02241 -3.79386 -12.5026 1.20176 -0.0828122 -6.13587 12.8035 2.27803 -13.5001 -14.3278 
0 0 0 0 0 -0 -46.2965 94.7997 32.1027 71.6575 -10.3221 -4.46532 -2.69724 7.43032 -0.144315 -70.1915 -2.18663e-015 88.8779 -0.0310711 10.7595 1.96963 85.407 70.887 -4.75962 13.1342 3.43533 0.764692 -5.68563 16.9532 12.2407 29.8703 7.82586 -0.130764 -133.533 42.1658 152.363 9.52751 0.295786 -0.907742 -121.029 82.673 144.107 27.5574 4.95586 2.47156 0.548925 -14.0294 -22.7566 1.20734 -0.998971 20.1238 -77.6217 32.3841 -143.167 26.8049 -0.0536703 -0.155908 20.793 -5.38525 -103.137 26.6817 -2.84217e-014 0.320147 -6.36111e-015 1.59028e-015 -0 27.5927 4.71444 -2.65209 -1.82347 7.22757 39.6381 2.83739 -1.17114 -18.7564 -139.179 7.939 84.9098 28.839 -0.0548439 1.22491 11.4307 -0.276947 88.4137 26.5114 1.42109e-014 -0.101894 -1.10845e-012 -4.76473e-009 -0.0296889 -4.76168 -1.9167 -10.2353 -57.9979 10.4055 99.121 2.55951 -42.0585 -8.02213 -0.668671 28.4889 -4.74995 3.16357 -42.5282 -3.95426 -3.15691 -12.7222 -1.0477 0.346054 -6.02161 12.8035 1.64038 -7.33267 13.8796 -4.94151 -1.41743 10.6446 -50.9962 -10.257 80.4412 -2.56294 -42.0364 -7.94377 1.29393 31.8033 13.681 -3.0952 -42.555 -4.02241 -4.34139 -12.0535 1.19421 -0.0828122 -6.13587 12.8035 2.24296 -12.6929 -13.5905 
0 0 0 0 0 -0 -47.1663 94.9285 32.1362 71.974 -10.5992 -4.67334 -2.69724 7.43032 -0.144315 -70.1915 -1.38155e-014 88.8779 -0.0310711 10.7595 1.96963 87.2941 71.1291 -6.2256 13.1342 3.43533 0.764692 -6.07382 17.5062 11.3672 29.8703 7.82586 -0.130764 -134.208 42.3493 152.626 9.52751 0.295786 -0.907742 -121.503 82.8067 144.417 27.5574 4.95586 2.47156 0.555601 -13.9773 -22.7581 1.20734 -0.998971 20.1238 -77.3349 32.6491 -143.458 26.8049 -0.0536703 -0.155908 21.9307 -5.70731 -103.129 26.6817 -2.84217e-014 0.320147 2.07979e-032 -2.39784e-015 4.96962e-016 27.5927 4.71444 -2.65209 -1.83769 7.28691 39.6186 2.83739 -1.17114 -18.7564 -139.169 7.99644 85.2426 28.839 -0.0548439 1.22491 11.3183 -0.276886 88.3997 26.5114 2.84217e-014 -0.101894 -1.10885e-012 -4.76474e-009 -0.0296889 -4.76168 -1.9167 -10.2353 -58.2183 10.1514 99.4404 2.55951 -42.0585 -8.02213 -0.430835 27.7434 -4.85895 3.16357 -42.5282 -3.95426 -2.62676 -11.6579 -0.944848 0.346054 -6.02161 12.8035 1.11044 -6.59743 14.3069 -4.94151 -1.41743 10.6446 -50.7184 -10.1143 80.9374 -2.56294 -42.0364 -7.94377 1.26279 31.6581 13.211 -3.0952 -42.555 -4.02241 -4.38883 -11.8117 1.1862 -0.0828122 -6.13587 12.8035 2.16502 -10.7643 -12.5375 
